<svg width="1728" height="1117" viewBox="0 0 1728 1117" fill="none" xmlns="http://www.w3.org/2000/svg">
<g clip-path="url(#clip0_4009_5061)">
<rect width="1728" height="1117" fill="url(#paint0_linear_4009_5061)"/>
<foreignObject x="-3.6" y="-3.6" width="1735.2" height="1124.2"><div xmlns="http://www.w3.org/1999/xhtml" style="backdrop-filter:blur(1.8px);clip-path:url(#bgblur_1_4009_5061_clip_path);height:100%;width:100%"></div></foreignObject><rect data-figma-bg-blur-radius="3.6" width="1728" height="1117" fill="black" fill-opacity="0.7"/>
<path d="M418.168 604L397.304 514.4H416.632L429.688 581.472L444.536 514.4H466.168L481.784 581.472L494.84 514.4H514.168L493.304 604H471.16L455.8 535.52L440.312 604H418.168ZM523.796 604V514.4H540.18V552.416C541.887 549.088 544.319 546.4 547.476 544.352C550.719 542.304 554.687 541.28 559.38 541.28C566.207 541.28 571.327 543.2 574.74 547.04C578.239 550.88 579.988 556.384 579.988 563.552V604H563.604V565.216C563.604 561.973 562.751 559.499 561.044 557.792C559.337 556 557.119 555.104 554.388 555.104C552.084 555.104 550.079 555.573 548.372 556.512C546.665 557.451 545.087 558.731 543.636 560.352C542.527 561.632 541.673 563.04 541.076 564.576C540.479 566.027 540.18 567.989 540.18 570.464V604H523.796ZM594.814 632.416L592.766 618.08H605.566C609.235 618.08 611.625 616.288 612.734 612.704L614.27 607.968L589.182 542.816H606.59L621.694 585.568L635.774 542.816H652.286L626.046 617.696C624.851 621.109 623.443 623.883 621.822 626.016C620.286 628.235 618.238 629.856 615.678 630.88C613.118 631.904 609.747 632.416 605.566 632.416H594.814ZM725.806 605.536C717.614 605.536 710.574 603.872 704.686 600.544C698.883 597.131 694.403 592.267 691.246 585.952C688.174 579.637 686.638 572.171 686.638 563.552V554.72C686.638 546.357 688.217 539.061 691.374 532.832C694.617 526.517 699.182 521.611 705.07 518.112C711.043 514.613 718.083 512.864 726.19 512.864C737.113 512.864 745.561 515.424 751.534 520.544C757.593 525.579 761.689 532.149 763.822 540.256L747.95 545.888C746.585 540.768 744.11 536.672 740.526 533.6C737.027 530.528 732.249 528.992 726.19 528.992C719.278 528.992 713.817 531.339 709.806 536.032C705.881 540.64 703.918 546.955 703.918 554.976V563.296C703.918 571.573 705.881 578.016 709.806 582.624C713.817 587.147 719.15 589.408 725.806 589.408C731.865 589.408 736.686 587.915 740.27 584.928C743.939 581.941 746.585 577.376 748.206 571.232L764.334 576.864C762.03 585.824 757.763 592.864 751.534 597.984C745.305 603.019 736.729 605.536 725.806 605.536ZM804.578 605.536C798.434 605.536 793.101 604.256 788.578 601.696C784.055 599.136 780.514 595.552 777.954 590.944C775.479 586.251 774.242 580.832 774.242 574.688V572.128C774.242 565.899 775.479 560.48 777.954 555.872C780.514 551.264 784.055 547.68 788.578 545.12C793.101 542.56 798.434 541.28 804.578 541.28C810.722 541.28 816.055 542.56 820.578 545.12C825.186 547.68 828.727 551.264 831.202 555.872C833.677 560.48 834.914 565.899 834.914 572.128V574.688C834.914 580.832 833.677 586.251 831.202 590.944C828.727 595.552 825.186 599.136 820.578 601.696C816.055 604.256 810.722 605.536 804.578 605.536ZM804.578 591.328C808.845 591.328 812.215 589.92 814.69 587.104C817.25 584.203 818.53 579.893 818.53 574.176V572.64C818.53 566.837 817.25 562.528 814.69 559.712C812.215 556.896 808.845 555.488 804.578 555.488C800.397 555.488 797.026 556.896 794.466 559.712C791.906 562.528 790.626 566.837 790.626 572.64V574.176C790.626 579.893 791.906 584.203 794.466 587.104C797.026 589.92 800.397 591.328 804.578 591.328ZM847.171 604V514.4H863.555V604H847.171ZM878.171 604V514.4H894.555V604H878.171ZM937.075 605.536C931.102 605.536 925.811 604.256 921.203 601.696C916.68 599.051 913.139 595.424 910.579 590.816C908.104 586.123 906.867 580.661 906.867 574.432V572.384C906.867 566.581 908.147 561.333 910.707 556.64C913.267 551.947 916.808 548.235 921.331 545.504C925.939 542.688 931.23 541.28 937.203 541.28C943.432 541.28 948.68 542.603 952.947 545.248C957.214 547.808 960.456 551.307 962.675 555.744C964.894 560.181 966.003 565.131 966.003 570.592V576.608H922.995C923.336 581.472 924.744 585.227 927.219 587.872C929.779 590.432 933.15 591.712 937.331 591.712C940.83 591.712 943.646 590.987 945.779 589.536C947.998 588 949.747 585.696 951.027 582.624L964.979 588.512C962.846 593.888 959.432 598.069 954.739 601.056C950.046 604.043 944.158 605.536 937.075 605.536ZM937.075 554.208C933.576 554.208 930.59 555.189 928.115 557.152C925.726 559.029 924.147 561.803 923.379 565.472H949.875C949.534 562.059 948.296 559.328 946.163 557.28C944.115 555.232 941.086 554.208 937.075 554.208ZM1005.81 605.536C1000.01 605.536 994.848 604.299 990.325 601.824C985.888 599.264 982.389 595.68 979.829 591.072C977.354 586.464 976.117 581.003 976.117 574.688V572.128C976.117 565.984 977.397 560.608 979.957 556C982.602 551.307 986.186 547.68 990.709 545.12C995.232 542.56 1000.35 541.28 1006.07 541.28C1013.66 541.28 1019.72 542.859 1024.25 546.016C1028.77 549.088 1031.97 553.227 1033.85 558.432L1018.87 564.832C1017.76 561.845 1016.18 559.541 1014.13 557.92C1012.17 556.299 1009.48 555.488 1006.07 555.488C1002.14 555.488 998.901 556.981 996.341 559.968C993.781 562.955 992.501 567.093 992.501 572.384V574.432C992.501 579.723 993.781 583.861 996.341 586.848C998.901 589.835 1002.14 591.328 1006.07 591.328C1009.48 591.328 1012.21 590.432 1014.26 588.64C1016.39 586.763 1018.02 584.245 1019.13 581.088L1034.49 586.208C1032.35 592.352 1029.02 597.131 1024.5 600.544C1019.98 603.872 1013.75 605.536 1005.81 605.536ZM1072.29 604C1065.72 604 1060.86 602.208 1057.7 598.624C1054.54 595.04 1052.96 590.005 1052.96 583.52V556.256H1041.44V542.816H1052.96V526.688L1069.35 523.36V542.816H1087.4V556.256H1069.35V583.136C1069.35 587.488 1071.57 589.664 1076 589.664H1088.16L1085.86 604H1072.29ZM1107.99 532.96C1105.26 532.96 1102.91 532.021 1100.95 530.144C1098.99 528.181 1098.01 525.792 1098.01 522.976C1098.01 520.245 1098.99 517.899 1100.95 515.936C1102.91 513.973 1105.26 512.992 1107.99 512.992C1110.81 512.992 1113.15 513.973 1115.03 515.936C1116.99 517.899 1117.98 520.245 1117.98 522.976C1117.98 525.792 1116.99 528.181 1115.03 530.144C1113.15 532.021 1110.81 532.96 1107.99 532.96ZM1099.8 604V542.816H1116.18V604H1099.8ZM1158.95 605.536C1152.81 605.536 1147.48 604.256 1142.95 601.696C1138.43 599.136 1134.89 595.552 1132.33 590.944C1129.85 586.251 1128.62 580.832 1128.62 574.688V572.128C1128.62 565.899 1129.85 560.48 1132.33 555.872C1134.89 551.264 1138.43 547.68 1142.95 545.12C1147.48 542.56 1152.81 541.28 1158.95 541.28C1165.1 541.28 1170.43 542.56 1174.95 545.12C1179.56 547.68 1183.1 551.264 1185.58 555.872C1188.05 560.48 1189.29 565.899 1189.29 572.128V574.688C1189.29 580.832 1188.05 586.251 1185.58 590.944C1183.1 595.552 1179.56 599.136 1174.95 601.696C1170.43 604.256 1165.1 605.536 1158.95 605.536ZM1158.95 591.328C1163.22 591.328 1166.59 589.92 1169.07 587.104C1171.63 584.203 1172.91 579.893 1172.91 574.176V572.64C1172.91 566.837 1171.63 562.528 1169.07 559.712C1166.59 556.896 1163.22 555.488 1158.95 555.488C1154.77 555.488 1151.4 556.896 1148.84 559.712C1146.28 562.528 1145 566.837 1145 572.64V574.176C1145 579.893 1146.28 584.203 1148.84 587.104C1151.4 589.92 1154.77 591.328 1158.95 591.328ZM1201.93 604V542.816H1218.31V552.544C1219.85 549.131 1222.2 546.4 1225.35 544.352C1228.51 542.304 1232.35 541.28 1236.87 541.28C1243.36 541.28 1248.27 543.115 1251.59 546.784C1255.01 550.453 1256.71 555.829 1256.71 562.912V604H1240.33V564.832C1240.33 558.347 1237.51 555.104 1231.88 555.104C1229.75 555.104 1227.87 555.616 1226.25 556.64C1224.63 557.579 1223.18 558.773 1221.9 560.224C1220.79 561.504 1219.89 562.955 1219.21 564.576C1218.61 566.112 1218.31 568.117 1218.31 570.592V604H1201.93ZM1288.32 576.864V571.616C1288.32 567.947 1288.66 565.003 1289.35 562.784C1290.12 560.565 1291.14 558.731 1292.42 557.28C1293.78 555.744 1295.41 554.293 1297.28 552.928L1303.94 548.192C1306.24 546.485 1307.95 544.864 1309.06 543.328C1310.17 541.792 1310.72 539.701 1310.72 537.056C1310.72 534.325 1309.78 532.235 1307.91 530.784C1306.12 529.248 1303.47 528.48 1299.97 528.48H1295.88C1292.29 528.48 1289.56 529.589 1287.68 531.808C1285.89 533.941 1285 536.8 1285 540.384V544.608H1268.61V538.08C1268.61 533.557 1269.72 529.504 1271.94 525.92C1274.16 522.336 1277.23 519.52 1281.16 517.472C1285.17 515.424 1289.73 514.4 1294.85 514.4H1300.74C1309.61 514.4 1316.27 516.32 1320.71 520.16C1325.14 523.915 1327.36 529.291 1327.36 536.288C1327.36 540.725 1326.47 544.565 1324.68 547.808C1322.97 550.965 1320.28 554.037 1316.61 557.024L1310.08 562.4C1307.95 564.021 1306.41 565.557 1305.48 567.008C1304.62 568.459 1304.2 570.763 1304.2 573.92V576.864H1288.32ZM1296.52 605.28C1293.7 605.28 1291.27 604.256 1289.22 602.208C1287.17 600.16 1286.15 597.771 1286.15 595.04C1286.15 592.224 1287.17 589.792 1289.22 587.744C1291.27 585.696 1293.7 584.672 1296.52 584.672C1299.25 584.672 1301.64 585.696 1303.68 587.744C1305.73 589.792 1306.76 592.224 1306.76 595.04C1306.76 597.771 1305.73 600.16 1303.68 602.208C1301.64 604.256 1299.25 605.28 1296.52 605.28Z" fill="#F7F9F9"/>
</g>
<defs>
<clipPath id="bgblur_1_4009_5061_clip_path" transform="translate(3.6 3.6)"><rect width="1728" height="1117"/>
</clipPath><linearGradient id="paint0_linear_4009_5061" x1="1728" y1="3.67861" x2="653.967" y2="1756.36" gradientUnits="userSpaceOnUse">
<stop stop-color="#7638FA"/>
<stop offset="0.276935" stop-color="#D300C5"/>
<stop offset="0.463543" stop-color="#FF0069"/>
<stop offset="0.689691" stop-color="#FF7A00"/>
<stop offset="0.960976" stop-color="#FFD600"/>
</linearGradient>
<clipPath id="clip0_4009_5061">
<rect width="1728" height="1117" fill="white"/>
</clipPath>
</defs>
</svg>
